<?xml version="1.0" standalone="no"?>
<!DOCTYPE svg PUBLIC "-//W3C//DTD SVG 20010904//EN"
 "http://www.w3.org/TR/2001/REC-SVG-20010904/DTD/svg10.dtd">
<svg version="1.0" xmlns="http://www.w3.org/2000/svg"
 width="512.000000pt" height="512.000000pt" viewBox="0 0 512.000000 512.000000"
 preserveAspectRatio="xMidYMid meet">

<g transform="translate(0.000000,512.000000) scale(0.100000,-0.100000)"
fill="#000000" stroke="none">
<path d="M2480 4440 l0 -200 80 0 80 0 0 200 0 200 -80 0 -80 0 0 -200z"/>
<path d="M2507 3906 c-54 -20 -72 -39 -91 -97 -14 -45 -16 -119 -16 -613 l0
-562 -221 -260 c-121 -142 -227 -273 -235 -291 -37 -85 -5 -186 71 -223 60
-29 104 -21 156 28 80 77 529 637 539 672 6 21 10 275 10 630 l0 596 -22 44
c-37 71 -117 103 -191 76z"/>
<path d="M480 2560 l0 -80 200 0 200 0 0 80 0 80 -200 0 -200 0 0 -80z"/>
<path d="M4240 2560 l0 -80 200 0 200 0 0 80 0 80 -200 0 -200 0 0 -80z"/>
<path d="M2480 680 l0 -200 80 0 80 0 0 200 0 200 -80 0 -80 0 0 -200z"/>
</g>
</svg>
